<?xml version="1.0" encoding="utf-8"?>
<!-- Generator: Adobe Illustrator 24.0.3, SVG Export Plug-In . SVG Version: 6.00 Build 0)  -->
<svg version="1.1" id="Layer_1" xmlns="http://www.w3.org/2000/svg" xmlns:xlink="http://www.w3.org/1999/xlink" x="0px" y="0px"
	 viewBox="0 0 563.56 125.88" style="enable-background:new 0 0 563.56 125.88;" xml:space="preserve">
<style type="text/css">
	.st0{fill:#0F6684;}
	.st1{fill:#787878;}
</style>
<g>
	<path class="st0" d="M25.92,125.88L0,0h14.12l11.8,63.7L37.91,0h13.94L25.92,125.88z"/>
	<path class="st0" d="M67.77,86.9V0h39.33v13.78H81.53V86.9h25.57v12.88H81.53v5.2c0,2.25,0.2,4.02,0.62,5.27
		c0.41,1.25,1.94,1.88,4.56,1.88h20.39v13.76H86.71c-4.64,0-8.22-0.8-10.72-2.41c-2.5-1.6-4.38-3.51-5.63-5.72
		c-1.25-2.2-2.01-4.49-2.24-6.88c-0.23-2.39-0.35-4.35-0.35-5.89v-5.2h-11.8L47.92,86.9H67.77z"/>
	<path class="st0" d="M119.07,125.88c3.46-4.16,6.29-8.88,8.5-14.13c2.2-5.24,3.3-10.54,3.3-15.91c0-2.27-0.15-4.32-0.44-6.17
		c-0.3-1.85-0.76-3.73-1.35-5.63c-0.6-1.91-1.4-4-2.4-6.26c-1.02-2.27-2.24-4.95-3.67-8.05c-2.39-5.25-4.18-10.04-5.37-14.39
		c-1.19-4.35-1.79-9.21-1.79-14.58c0-7.51,1.11-14.68,3.3-21.55c2.21-6.85,5.46-13.26,9.75-19.22h18.77
		c-5.36,5.14-9.68,11.18-12.97,18.16c-3.27,6.97-4.9,14.57-4.9,22.79c0,1.67,0.06,3.32,0.17,4.92c0.12,1.62,0.38,3.35,0.8,5.2
		c0.42,1.85,1.08,3.93,1.97,6.26c0.9,2.33,2.07,5.09,3.49,8.31c1.54,3.35,2.87,6.31,3.93,8.95c1.08,2.62,1.94,5.03,2.59,7.23
		c0.65,2.21,1.14,4.35,1.44,6.45c0.29,2.08,0.44,4.32,0.44,6.69c0,3.83-0.52,8.5-1.6,14.04c-1.08,5.54-3.22,11.17-6.45,16.89H119.07
		z"/>
	<path class="st0" d="M200.18,61.28v63.98c-7.86-2.65-14.81-6.12-20.82-10.4c-6.02-4.26-11.06-9.11-15.12-14.55
		c-4.04-5.43-7.11-11.36-9.2-17.8c-2.09-6.43-3.13-13.13-3.13-20.12c0-7.77,1.25-14.95,3.75-21.55c2.5-6.59,5.95-12.5,10.36-17.71
		c4.41-5.21,9.55-9.76,15.38-13.65c5.83-3.89,12.09-7.04,18.77-9.48v13.31c-1.9,0.88-4.76,2.38-8.57,4.48
		c-3.83,2.11-7.67,5.1-11.54,8.99c-3.87,3.89-7.25,8.71-10.1,14.47c-2.87,5.77-4.29,12.75-4.29,20.96c0,8.65,1.72,16.31,5.18,22.96
		c3.46,6.66,8.64,12.81,15.56,18.47V61.28H200.18z"/>
	<path class="st0" d="M226.54,86.9V25.39c0-4.76,0.71-8.79,2.14-12.06c1.44-3.27,3.23-5.91,5.37-7.87c2.15-1.96,4.52-3.36,7.16-4.21
		c2.62-0.83,5.18-1.25,7.68-1.25c0.83,0,1.94,0.07,3.3,0.19c1.37,0.12,2.87,0.44,4.48,0.97c1.6,0.54,3.22,1.31,4.82,2.33
		c1.62,1.02,3.07,2.36,4.38,4.02c2.5,3.46,3.97,6.62,4.38,9.49c0.42,2.85,0.63,5.66,0.63,5.18v103.71h-13.77v-26.1H240.3v26.1
		h-13.77v-26.1h-11.8l-8.05-12.88H226.54z M257.11,86.9V25.39c0-1.08-0.03-2.28-0.09-3.67c-0.06-1.37-0.35-2.62-0.89-3.75
		c-0.54-1.14-1.38-2.11-2.5-2.94c-1.14-0.84-2.78-1.27-4.92-1.27c-2.15,0-3.78,0.42-4.92,1.27c-1.14,0.83-1.97,1.85-2.5,3.03
		c-0.54,1.19-0.84,2.45-0.9,3.75c-0.06,1.33-0.09,2.5-0.09,3.58V86.9H257.11z"/>
</g>
<g>
	<path class="st1" d="M326.33,87.93v3.06c0,0.88-0.42,1.4-1.3,1.61c-0.05,0-0.16,0.05-0.31,0.05c-0.16,0-0.42,0.1-0.78,0.16
		s-0.93,0.16-1.56,0.26v17.34c0,2.23-0.36,4.31-1.09,6.18c-0.73,1.87-1.71,3.53-3.06,4.93c-1.35,1.35-3.01,2.44-4.93,3.22
		c-1.92,0.78-4.1,1.14-6.49,1.14c-2.39,0-4.57-0.36-6.49-1.14c-1.92-0.78-3.53-1.87-4.88-3.22c-1.35-1.4-2.39-3.06-3.12-4.93
		c-0.73-1.87-1.04-3.95-1.04-6.18V93.07c-0.62-0.1-1.19-0.21-1.56-0.26c-0.36-0.05-0.62-0.16-0.78-0.16c-0.16,0-0.26-0.05-0.31-0.05
		c-0.88-0.21-1.3-0.73-1.3-1.61v-3.06h3.95h6.96h4.15v3.06c0,0.88-0.42,1.4-1.3,1.61c-0.05,0-0.21,0.05-0.36,0.05
		c-0.16,0-0.47,0.1-0.88,0.16c-0.42,0.05-0.99,0.16-1.61,0.26v17.29c0,1.45,0.16,2.75,0.57,3.89c0.36,1.14,0.99,2.18,1.71,3.01
		c0.73,0.83,1.61,1.4,2.65,1.87c1.04,0.47,2.28,0.68,3.63,0.68c1.35,0,2.6-0.21,3.63-0.68c1.04-0.47,1.97-1.04,2.7-1.87
		c0.73-0.83,1.25-1.82,1.66-2.96c0.36-1.14,0.62-2.44,0.62-3.89V93.07c-0.62-0.1-1.19-0.21-1.61-0.26
		c-0.42-0.05-0.73-0.16-0.88-0.16c-0.16,0-0.31-0.05-0.36-0.05c-0.88-0.21-1.3-0.73-1.3-1.61v-3.06h4.15h6.96H326.33z"/>
	<path class="st1" d="M361.69,122.4v3.06h-3.95h-6.39v-16.93c0-1.61-0.42-2.91-1.14-3.79c-0.73-0.88-1.87-1.35-3.38-1.35
		c-1.09,0-2.13,0.26-3.12,0.78c-0.99,0.52-1.87,1.14-2.75,2.03v14.12c0.62,0.1,1.14,0.21,1.51,0.26c0.36,0.05,0.62,0.1,0.78,0.16
		c0.16,0.05,0.26,0.05,0.31,0.05c0.88,0.21,1.3,0.73,1.3,1.61v3.06h-3.89h-6.44h-3.89v-3.06c0-0.88,0.42-1.4,1.3-1.61
		c0.05,0,0.16-0.05,0.31-0.05c0.16-0.05,0.42-0.1,0.78-0.16c0.36-0.05,0.88-0.16,1.51-0.26v-16.36c-0.62-0.1-1.14-0.21-1.51-0.26
		c-0.36-0.05-0.62-0.16-0.78-0.16c-0.16-0.05-0.26-0.05-0.31-0.05c-0.88-0.21-1.3-0.73-1.3-1.61v-3.06h3.89h3.95
		c0.83,0,1.35,0.42,1.61,1.19l0.47,2.08c0.52-0.57,1.04-1.04,1.66-1.51c0.57-0.47,1.25-0.83,1.92-1.14
		c0.68-0.31,1.35-0.62,2.13-0.78c0.78-0.16,1.61-0.26,2.49-0.26c1.45,0,2.75,0.21,3.89,0.73c1.14,0.47,2.02,1.19,2.8,2.08
		c0.73,0.88,1.3,1.97,1.71,3.22c0.42,1.25,0.57,2.6,0.57,4.1v11.79c0.62,0.1,1.19,0.21,1.56,0.26c0.36,0.05,0.62,0.16,0.78,0.16
		c0.16,0,0.26,0.05,0.31,0.05C361.28,121,361.69,121.52,361.69,122.4z"/>
	<path class="st1" d="M380.95,122.4v3.06h-3.95h-6.39h-3.95v-3.06c0-0.88,0.42-1.4,1.3-1.61c0.05,0,0.16-0.05,0.31-0.05
		c0.16-0.05,0.42-0.1,0.78-0.16c0.36-0.05,0.93-0.16,1.56-0.26v-16.36c-0.62-0.1-1.19-0.21-1.56-0.26
		c-0.36-0.05-0.62-0.16-0.78-0.16c-0.16,0-0.26-0.05-0.31-0.05c-0.88-0.21-1.3-0.73-1.3-1.61v-3.06h3.95h6.39v21.5
		c0.62,0.1,1.19,0.21,1.56,0.26c0.36,0.05,0.62,0.16,0.78,0.16c0.16,0,0.26,0.05,0.31,0.05C380.54,121,380.95,121.52,380.95,122.4z
		 M377.63,92.6c-0.21,0.47-0.52,0.93-0.88,1.3c-0.36,0.36-0.78,0.68-1.3,0.88c-0.52,0.21-1.04,0.31-1.61,0.31
		c-0.57,0-1.09-0.1-1.61-0.31c-0.52-0.21-0.88-0.52-1.25-0.88c-0.36-0.36-0.68-0.83-0.88-1.3c-0.21-0.47-0.31-0.99-0.31-1.56
		c0-0.57,0.1-1.09,0.31-1.61c0.21-0.52,0.52-0.93,0.88-1.3c0.36-0.36,0.73-0.62,1.25-0.83c0.52-0.21,1.04-0.36,1.61-0.36
		c0.57,0,1.09,0.16,1.61,0.36c0.52,0.21,0.93,0.47,1.3,0.83c0.36,0.36,0.68,0.78,0.88,1.3c0.21,0.52,0.36,1.04,0.36,1.61
		C377.99,91.61,377.84,92.13,377.63,92.6z"/>
	<path class="st1" d="M396.01,97.27v1.77h6.96v4.57h-6.7v16.72c0.62,0.1,1.14,0.21,1.56,0.26c0.42,0.05,0.73,0.16,0.93,0.16
		c0.21,0,0.36,0.05,0.42,0.05c0.88,0.21,1.3,0.73,1.3,1.61v3.06h-4.21h-0.05h-6.39h-3.95v-3.06c0-0.88,0.42-1.4,1.3-1.61
		c0.05,0,0.21,0,0.36-0.05c0.16-0.05,0.42-0.1,0.78-0.16c0.36-0.05,0.88-0.16,1.51-0.26v-16.67l-2.28-0.36
		c-0.52-0.1-0.93-0.26-1.25-0.52c-0.31-0.26-0.42-0.62-0.42-1.09v-2.6h3.95v-1.97c0-1.51,0.21-2.91,0.68-4.1
		c0.47-1.19,1.09-2.29,1.97-3.12c0.88-0.83,1.87-1.45,3.12-1.92c1.25-0.47,2.6-0.68,4.15-0.68c1.25,0,2.39,0.16,3.43,0.47l-0.1,3.22
		c-0.05,0.52-0.31,0.83-0.73,0.93c-0.42,0.1-0.93,0.21-1.51,0.21c-0.78,0-1.45,0.05-2.03,0.21s-1.09,0.47-1.51,0.88
		s-0.73,0.93-0.93,1.61C396.17,95.51,396.01,96.29,396.01,97.27z"/>
	<path class="st1" d="M426.59,99.4c1.61,0.62,3.01,1.51,4.15,2.7c1.14,1.19,1.97,2.6,2.6,4.31c0.62,1.71,0.93,3.58,0.93,5.66
		c0,2.13-0.31,4-0.93,5.71c-0.62,1.71-1.45,3.17-2.6,4.36c-1.14,1.19-2.54,2.13-4.15,2.75c-1.61,0.62-3.43,0.93-5.4,0.93
		c-1.97,0-3.84-0.31-5.45-0.93c-1.61-0.62-3.01-1.56-4.15-2.75c-1.14-1.19-2.08-2.65-2.7-4.36c-0.62-1.71-0.93-3.58-0.93-5.71
		c0-2.08,0.31-3.95,0.93-5.66c0.62-1.71,1.56-3.11,2.7-4.31c1.14-1.19,2.54-2.08,4.15-2.7c1.61-0.62,3.48-0.99,5.45-0.99
		C423.17,98.42,424.98,98.78,426.59,99.4z M426.08,118.67c1.04-1.51,1.61-3.69,1.61-6.54c0-2.86-0.57-5.04-1.61-6.54
		c-1.04-1.5-2.65-2.28-4.88-2.28c-2.23,0-3.89,0.78-4.98,2.28c-1.09,1.51-1.66,3.74-1.66,6.59c0,2.86,0.57,4.98,1.66,6.49
		c1.09,1.51,2.75,2.23,4.98,2.23C423.43,120.9,425.04,120.17,426.08,118.67z"/>
	<path class="st1" d="M460.14,99.25l-0.83,4.83c-0.05,0.31-0.16,0.52-0.31,0.62c-0.16,0.1-0.42,0.21-0.73,0.21
		c-0.26,0-0.57-0.05-1.04-0.16c-0.47-0.1-1.09-0.21-1.82-0.21c-1.35,0-2.49,0.36-3.43,1.09c-0.93,0.73-1.71,1.87-2.39,3.27v11.42
		c2.23,0.42,2.18,0.42,2.6,0.47c0.88,0.21,1.3,0.73,1.3,1.61v3.06h-3.89h-6.44h-3.89v-3.06c0-0.88,0.42-1.4,1.3-1.61
		c0.42-0.05,0.36-0.05,2.6-0.47v-16.36c-2.23-0.42-2.18-0.42-2.6-0.47c-0.88-0.21-1.3-0.73-1.3-1.61v-3.06h3.89h3.79
		c0.68,0,1.09,0.1,1.35,0.36c0.26,0.26,0.42,0.68,0.52,1.25l0.42,3.22c0.93-1.66,2.02-2.96,3.32-3.89c1.3-0.93,2.7-1.4,4.31-1.4
		C458.16,98.36,459.25,98.62,460.14,99.25z"/>
	<path class="st1" d="M510.24,122.4v3.06h-3.89h-6.44v-16.93c0-1.71-0.36-3.01-1.09-3.84c-0.73-0.88-1.82-1.3-3.27-1.3
		c-0.68,0-1.3,0.16-1.87,0.36c-0.57,0.21-1.04,0.52-1.45,0.93c-0.42,0.42-0.73,0.99-0.99,1.61c-0.26,0.62-0.36,1.4-0.36,2.23v11.79
		c0.67,0.1,1.14,0.21,1.51,0.26c0.36,0.05,0.62,0.1,0.78,0.16c0.16,0.05,0.26,0.05,0.31,0.05c0.88,0.21,1.3,0.73,1.3,1.61v3.06
		h-3.89h-6.44v-16.93c0-1.77-0.36-3.06-1.09-3.89c-0.73-0.83-1.77-1.25-3.17-1.25c-0.93,0-1.77,0.21-2.6,0.68
		c-0.83,0.47-1.56,1.14-2.23,1.92v14.33c0.62,0.1,1.14,0.21,1.51,0.26c0.36,0.05,0.62,0.1,0.78,0.16c0.16,0.05,0.26,0.05,0.31,0.05
		c0.88,0.21,1.3,0.73,1.3,1.61v3.06h-3.89h-6.44h-3.89v-3.06c0-0.88,0.42-1.4,1.3-1.61c0.05,0,0.16-0.05,0.31-0.05
		c0.16,0,0.42-0.1,0.78-0.16c0.36-0.05,0.88-0.16,1.51-0.26v-16.36c-0.62-0.1-1.14-0.21-1.51-0.26c-0.36-0.05-0.62-0.16-0.78-0.16
		c-0.16,0-0.26-0.05-0.31-0.05c-0.88-0.21-1.35-0.73-1.35-1.61v-3.06h3.95h3.95c0.83,0,1.35,0.42,1.61,1.19l0.42,1.97
		c0.47-0.52,0.93-1.04,1.45-1.45c0.52-0.42,1.09-0.78,1.66-1.09c0.57-0.31,1.19-0.57,1.87-0.78c0.68-0.21,1.4-0.26,2.18-0.26
		c1.66,0,3.06,0.42,4.15,1.35c1.09,0.93,1.92,2.13,2.44,3.64c0.42-0.88,0.93-1.66,1.56-2.29c0.62-0.62,1.3-1.09,2.02-1.51
		c0.73-0.42,1.56-0.68,2.39-0.88c0.83-0.21,1.71-0.31,2.54-0.31c1.45,0,2.75,0.21,3.89,0.68c1.14,0.47,2.13,1.09,2.91,1.97
		c0.78,0.88,1.35,1.92,1.77,3.17c0.42,1.25,0.62,2.7,0.62,4.31v11.79c0.62,0.1,1.14,0.21,1.51,0.26c0.36,0.05,0.62,0.16,0.78,0.16
		c0.16,0,0.26,0.05,0.31,0.05C509.83,121,510.24,121.52,510.24,122.4z"/>
	<path class="st1" d="M532.57,99.19c1.4,0.52,2.6,1.35,3.63,2.39c1.04,1.04,1.82,2.28,2.39,3.79c0.57,1.51,0.88,3.17,0.88,5.09
		c0,0.47-0.05,0.93-0.1,1.25c-0.05,0.31-0.1,0.57-0.21,0.73c-0.1,0.21-0.26,0.31-0.47,0.42c-0.21,0.1-0.42,0.1-0.73,0.1h-16.46
		c0.21,2.75,0.93,4.72,2.23,6.02c1.3,1.3,2.96,1.92,5.09,1.92c1.04,0,1.92-0.1,2.65-0.36c0.78-0.26,1.4-0.52,1.97-0.83
		c0.57-0.31,1.09-0.52,1.51-0.78c0.42-0.26,0.78-0.36,1.19-0.36c0.26,0,0.52,0.05,0.73,0.16c0.21,0.1,0.31,0.21,0.47,0.42l1.87,2.34
		c-0.73,0.83-1.51,1.56-2.39,2.13c-0.88,0.57-1.82,1.04-2.75,1.35c-0.99,0.31-1.97,0.52-2.96,0.68c-0.99,0.16-1.97,0.21-2.91,0.21
		c-1.87,0-3.53-0.26-5.14-0.88c-1.61-0.62-2.96-1.56-4.15-2.75c-1.19-1.19-2.13-2.7-2.8-4.47c-0.67-1.77-0.99-3.84-0.99-6.18
		c0-1.82,0.31-3.48,0.88-5.09c0.57-1.61,1.45-3.01,2.54-4.21c1.09-1.19,2.44-2.13,4-2.8c1.56-0.68,3.43-1.04,5.4-1.04
		C529.61,98.42,531.17,98.68,532.57,99.19z M523.69,104.59c-1.04,1.04-1.71,2.54-2.02,4.47h12.05c0-0.83-0.16-1.61-0.36-2.34
		c-0.21-0.73-0.57-1.35-1.04-1.92c-0.47-0.57-1.04-0.99-1.77-1.3c-0.73-0.31-1.56-0.52-2.49-0.52
		C526.18,102.99,524.73,103.56,523.69,104.59z"/>
	<path class="st1" d="M563.56,117c0,1.3-0.26,2.49-0.73,3.58c-0.47,1.09-1.14,2.02-2.03,2.8c-0.88,0.78-1.97,1.4-3.32,1.82
		c-1.3,0.47-2.86,0.68-4.57,0.68c-3.32,0-6.54-0.73-8.46-1.45v-2.6v-4.93h0.26h0.62h2.13c0.68,0,1.04,0.36,1.19,0.99
		c0.05,0.26,0.16,0.99,0.36,3.06c1.4,0.42,3.06,0.42,4.21,0.42c0.78,0,1.45-0.1,1.97-0.26c0.57-0.21,0.99-0.41,1.35-0.73
		c0.36-0.31,0.62-0.57,0.78-0.99c0.16-0.42,0.21-0.83,0.21-1.25c0-0.62-0.16-1.09-0.52-1.51c-0.36-0.42-0.88-0.73-1.51-1.04
		c-0.62-0.31-1.3-0.57-2.08-0.78c-0.78-0.26-1.61-0.52-2.44-0.78c-0.83-0.26-1.61-0.62-2.39-0.99c-0.78-0.36-1.5-0.83-2.13-1.4
		c-0.62-0.57-1.09-1.25-1.45-2.08c-0.36-0.83-0.57-1.82-0.57-3.01c0-1.09,0.21-2.13,0.62-3.12c0.42-0.99,1.09-1.87,1.92-2.6
		c0.83-0.73,1.92-1.35,3.17-1.76c1.25-0.42,2.65-0.68,4.31-0.68c2.6,0,4.05,0.26,7.79,1.4h-0.05v7.53h-0.21h-0.62h-2.13
		c-0.68,0-1.04-0.36-1.19-0.99c-0.05-0.26-0.16-0.88-0.36-2.91c-0.68-0.21-1.92-0.36-3.11-0.36c-1.25,0-2.23,0.26-2.96,0.78
		c-0.73,0.52-1.09,1.25-1.09,2.13c0,0.57,0.21,1.04,0.57,1.45c0.36,0.42,0.83,0.68,1.45,0.99c0.62,0.31,1.3,0.62,2.08,0.83
		c0.78,0.21,1.56,0.47,2.39,0.73s1.66,0.62,2.44,0.99c0.78,0.36,1.45,0.78,2.08,1.35c0.62,0.52,1.09,1.14,1.45,1.92
		C563.36,115.03,563.56,115.91,563.56,117z"/>
</g>
</svg>
